<svg width="373" height="376" viewBox="0 0 373 376" fill="none" xmlns="http://www.w3.org/2000/svg">
<path d="M140.697 93.3611C115.049 74.7756 95.5751 72.2737 89.0442 73.3459C81.6347 80.7802 82.6321 110.755 84.0571 124.814C33.9003 229.464 109.468 268.732 153.521 275.285C147.252 275.857 142.36 292.441 140.697 300.661C132.148 311.741 95.4563 303.521 89.7567 290.654C84.0571 277.787 68.383 266.707 53.0653 264.205C37.7475 261.703 55.9151 277.072 60.9023 280.289C65.8895 283.506 70.1642 292.798 77.2887 305.308C84.4133 317.817 86.1944 317.817 98.3061 325.68C107.996 331.971 130.604 329.016 140.697 326.753V370H6V6H366.5V370H239.728V330.684C239.728 307.81 229.754 282.552 224.767 272.783C333.345 254.198 316.792 166.393 294.943 124.814C303.208 101.081 295.3 80.6133 290.313 73.3459C270.079 73.3459 248.159 86.6894 239.728 93.3611C190.996 83.0676 153.403 89.0721 140.697 93.3611Z" stroke="#A87B37" stroke-width="12"/>
</svg>
