<svg width="369" height="369" viewBox="0 0 369 369" fill="none" xmlns="http://www.w3.org/2000/svg">
<path d="M94.8445 273V136.636H121.389V273H94.8445ZM108.25 115.596C103.634 115.596 99.6681 114.057 96.3537 110.979C93.0985 107.843 91.4709 104.114 91.4709 99.7933C91.4709 95.4136 93.0985 91.6849 96.3537 88.6072C99.6681 85.4704 103.634 83.902 108.25 83.902C112.866 83.902 116.802 85.4704 120.058 88.6072C123.372 91.6849 125.029 95.4136 125.029 99.7933C125.029 104.114 123.372 107.843 120.058 110.979C116.802 114.057 112.866 115.596 108.25 115.596ZM183.645 192.034V273H157.1V136.636H182.58V158.831H184.267C187.403 151.61 192.316 145.81 199.004 141.43C205.751 137.051 214.244 134.861 224.483 134.861C233.775 134.861 241.913 136.814 248.897 140.72C255.881 144.567 261.297 150.308 265.144 157.943C268.991 165.578 270.914 175.018 270.914 186.263V273H244.369V189.46C244.369 179.576 241.795 171.852 236.646 166.288C231.497 160.666 224.424 157.854 215.428 157.854C209.272 157.854 203.798 159.186 199.004 161.849C194.269 164.513 190.511 168.419 187.729 173.568C185.006 178.658 183.645 184.813 183.645 192.034Z" fill="#2C5E40"/>
<rect x="6" y="6" width="357" height="357" stroke="#2C5E40" stroke-width="12"/>
</svg>
